# Blender v2.79 (sub 0) OBJ File: ''
# www.blender.org
mtllib lp.mtl
o Cube_Cube.001
v -0.250000 -0.250000 0.500000
v -0.250000 0.250000 0.500000
v -0.250000 -0.250000 -0.500000
v -0.250000 0.250000 -0.500000
v 0.250000 -0.250000 0.500000
v 0.250000 0.250000 0.500000
v 0.250000 -0.250000 -0.500000
v 0.250000 0.250000 -0.500000
vt 0.257975 0.022193
vt 0.026572 0.484999
vt 0.026572 0.022193
vt 0.026572 0.756790
vt 0.257975 0.988193
vt 0.026572 0.988193
vt 0.481308 0.740558
vt 0.018501 0.509155
vt 0.481308 0.509155
vt 0.771701 0.246901
vt 0.540298 0.015498
vt 0.771701 0.015498
vt 0.981116 0.740558
vt 0.518310 0.509155
vt 0.981116 0.509155
vt 0.276668 0.484999
vt 0.508071 0.022193
vt 0.508071 0.484999
vt 0.257975 0.484999
vt 0.257975 0.756790
vt 0.018501 0.740558
vt 0.540298 0.246901
vt 0.518310 0.740558
vt 0.276667 0.022193
vn -1.0000 0.0000 0.0000
vn 0.0000 0.0000 -1.0000
vn 1.0000 0.0000 0.0000
vn 0.0000 0.0000 1.0000
vn 0.0000 -1.0000 0.0000
vn 0.0000 1.0000 0.0000
usemtl None
s off
f 2/1/1 3/2/1 1/3/1
f 4/4/2 7/5/2 3/6/2
f 8/7/3 5/8/3 7/9/3
f 6/10/4 1/11/4 5/12/4
f 7/13/5 1/14/5 3/15/5
f 4/16/6 6/17/6 8/18/6
f 2/1/1 4/19/1 3/2/1
f 4/4/2 8/20/2 7/5/2
f 8/7/3 6/21/3 5/8/3
f 6/10/4 2/22/4 1/11/4
f 7/13/5 5/23/5 1/14/5
f 4/16/6 2/24/6 6/17/6
