# Blender v3.6.5 OBJ File: ''
# www.blender.org
mtllib WallStone.mtl
o Cube_Cube.001
v -0.000000 -0.968002 1.256615
v 0.000000 0.903438 1.256615
v -0.000000 -0.968002 -0.978023
v 0.000000 0.903438 -0.978023
v -0.045141 0.917530 -0.095642
v -0.045141 1.092171 -0.095642
v -0.045141 0.917530 -0.555808
v -0.045141 1.092171 -0.555808
v 0.045141 0.917530 -0.095642
v 0.045141 1.092171 -0.095642
v 0.045141 0.917530 -0.555808
v 0.045141 1.092171 -0.555808
v -0.045141 0.917530 0.839321
v -0.045141 1.092171 0.839321
v -0.045141 0.917530 0.379156
v -0.045141 1.092171 0.379156
v 0.045141 0.917530 0.839321
v 0.045141 1.092171 0.839321
v 0.045141 0.917530 0.379156
v 0.045141 1.092171 0.379156
v -0.045141 0.917530 1.305375
v -0.045141 1.092171 1.305375
v -0.045141 0.917530 0.845209
v -0.045141 1.092171 0.845209
v 0.045141 0.917530 1.305375
v 0.045141 1.092171 1.305375
v 0.045141 0.917530 0.845209
v 0.045141 1.092171 0.845209
v -0.045141 0.731261 -0.555593
v -0.045141 0.905902 -0.555593
v -0.045141 0.731261 -1.015759
v -0.045141 0.905902 -1.015759
v 0.045141 0.731261 -0.555593
v 0.045141 0.905902 -0.555593
v 0.045141 0.731261 -1.015759
v 0.045141 0.905902 -1.015759
v -0.045141 0.731261 0.373596
v -0.045141 0.905902 0.373596
v -0.045141 0.731261 -0.086569
v -0.045141 0.905902 -0.086569
v 0.045141 0.731261 0.373596
v 0.045141 0.905902 0.373596
v 0.045141 0.731261 -0.086569
v 0.045141 0.905902 -0.086569
v -0.045141 0.367131 0.374711
v -0.045141 0.541772 0.374711
v -0.045141 0.367131 -0.085455
v -0.045141 0.541772 -0.085455
v 0.045141 0.367131 0.374711
v 0.045141 0.541772 0.374711
v 0.045141 0.367131 -0.085455
v 0.045141 0.541772 -0.085455
v -0.045141 0.367131 1.316631
v -0.045141 0.541772 1.316631
v -0.045141 0.367131 0.856466
v -0.045141 0.541772 0.856466
v 0.045141 0.367131 1.316631
v 0.045141 0.541772 1.316631
v 0.045141 0.367131 0.856466
v 0.045141 0.541772 0.856466
v -0.045141 0.181125 0.844673
v -0.045141 0.355766 0.844673
v -0.045141 0.181125 0.384508
v -0.045141 0.355766 0.384508
v 0.045141 0.181125 0.844673
v 0.045141 0.355766 0.844673
v 0.045141 0.181125 0.384508
v 0.045141 0.355766 0.384508
v -0.045141 -0.006014 -0.093898
v -0.045141 0.168627 -0.093898
v -0.045141 -0.006014 -0.554063
v -0.045141 0.168627 -0.554063
v 0.045141 -0.006014 -0.093898
v 0.045141 0.168627 -0.093898
v 0.045141 -0.006014 -0.554063
v 0.045141 0.168627 -0.554063
v -0.045141 -0.389738 -0.093898
v -0.045141 -0.215097 -0.093898
v -0.045141 -0.389738 -0.554063
v -0.045141 -0.215097 -0.554063
v 0.045141 -0.389738 -0.093898
v 0.045141 -0.215097 -0.093898
v 0.045141 -0.389738 -0.554063
v 0.045141 -0.215097 -0.554063
v -0.045141 -0.389738 -0.093898
v -0.045141 -0.215097 -0.093898
v -0.045141 -0.389738 -0.554063
v -0.045141 -0.215097 -0.554063
v 0.045141 -0.389738 -0.093898
v 0.045141 -0.215097 -0.093898
v 0.045141 -0.389738 -0.554063
v 0.045141 -0.215097 -0.554063
v -0.045141 -0.389738 0.372907
v -0.045141 -0.215097 0.372907
v -0.045141 -0.389738 -0.087259
v -0.045141 -0.215097 -0.087259
v 0.045141 -0.389738 0.372907
v 0.045141 -0.215097 0.372907
v 0.045141 -0.389738 -0.087259
v 0.045141 -0.215097 -0.087259
v -0.045141 -0.583199 0.842035
v -0.045141 -0.408558 0.842035
v -0.045141 -0.583199 0.381869
v -0.045141 -0.408558 0.381869
v 0.045141 -0.583199 0.842035
v 0.045141 -0.408558 0.842035
v 0.045141 -0.583199 0.381869
v 0.045141 -0.408558 0.381869
v -0.043137 -0.972629 0.380829
v -0.043137 -0.797988 0.380829
v -0.043137 -0.972629 -0.079337
v -0.043137 -0.797988 -0.079337
v 0.047145 -0.972629 0.380829
v 0.047145 -0.797988 0.380829
v 0.047145 -0.972629 -0.079337
v 0.047145 -0.797988 -0.079337
v -0.043137 -1.151732 -0.092044
v -0.043137 -0.977091 -0.092044
v -0.043137 -1.151732 -0.552209
v -0.043137 -0.977091 -0.552209
v 0.047145 -1.151732 -0.092044
v 0.047145 -0.977091 -0.092044
v 0.047145 -1.151732 -0.552209
v 0.047145 -0.977091 -0.552209
v -0.043137 -1.152853 1.302395
v -0.043137 -0.978212 1.302395
v -0.043137 -1.152853 0.842230
v -0.043137 -0.978212 0.842230
v 0.047145 -1.152853 1.302395
v 0.047145 -0.978212 1.302395
v 0.047145 -1.152853 0.842230
v 0.047145 -0.978212 0.842230
vt 1.000000 0.000000
vt 1.000000 1.000000
vt 0.000000 1.000000
vt 0.000000 0.000000
vt 0.320923 0.604108
vt 0.320923 0.508634
vt 0.567834 0.508634
vt 0.567834 0.604108
vt 0.450532 0.603855
vt 0.450532 0.506028
vt 0.501615 0.506028
vt 0.501615 0.603855
vt 0.323615 0.510194
vt 0.371069 0.510194
vt 0.371069 0.603229
vt 0.323615 0.603229
vt 0.025989 0.707583
vt 0.025989 0.678253
vt 0.172103 0.678253
vt 0.172103 0.707583
vt 0.602456 0.601696
vt 0.602456 0.562045
vt 0.783069 0.562045
vt 0.783069 0.601696
vt 0.566327 0.507166
vt 0.557941 0.604082
vt 0.318676 0.603574
vt 0.327062 0.506658
vt 0.450680 0.602603
vt 0.450680 0.504776
vt 0.501764 0.504776
vt 0.501764 0.602603
vt 0.323402 0.602394
vt 0.323402 0.509359
vt 0.370856 0.509359
vt 0.370856 0.602394
vt 0.156124 0.675283
vt 0.147519 0.705758
vt 0.018933 0.705684
vt 0.027537 0.675210
vt 0.782663 0.562490
vt 0.782663 0.602141
vt 0.602051 0.602141
vt 0.602051 0.562490
vt 0.567476 0.506298
vt 0.559090 0.603214
vt 0.319825 0.602707
vt 0.328212 0.505790
vt 0.450168 0.602048
vt 0.450168 0.504221
vt 0.501251 0.504221
vt 0.501251 0.602048
vt 0.323402 0.603438
vt 0.323402 0.510402
vt 0.370856 0.510402
vt 0.370856 0.603438
vt 0.013788 0.705807
vt 0.022417 0.675246
vt 0.163148 0.675327
vt 0.154519 0.705888
vt 0.608110 0.601544
vt 0.611008 0.570245
vt 0.785076 0.570271
vt 0.782178 0.601569
vt 0.565384 0.508456
vt 0.565546 0.602873
vt 0.320016 0.602882
vt 0.319854 0.508466
vt 0.449952 0.603158
vt 0.449952 0.505331
vt 0.501036 0.505331
vt 0.501036 0.603158
vt 0.323402 0.510611
vt 0.370856 0.510611
vt 0.370856 0.603647
vt 0.323402 0.603647
vt 0.173079 0.678060
vt 0.173079 0.707680
vt 0.025542 0.707680
vt 0.025542 0.678060
vt 0.629135 0.601677
vt 0.625079 0.569334
vt 0.787152 0.569295
vt 0.791208 0.601638
vt 0.318153 0.602609
vt 0.318153 0.507134
vt 0.565064 0.507134
vt 0.565064 0.602609
vt 0.450168 0.603300
vt 0.450168 0.505473
vt 0.501251 0.505473
vt 0.501251 0.603300
vt 0.323295 0.510194
vt 0.370750 0.510194
vt 0.370750 0.603229
vt 0.323295 0.603229
vt 0.162400 0.675168
vt 0.153697 0.705991
vt 0.013050 0.705911
vt 0.021753 0.675088
vt 0.783474 0.562401
vt 0.783474 0.602052
vt 0.602861 0.602052
vt 0.602861 0.562401
vt 0.567036 0.508033
vt 0.567198 0.602449
vt 0.321669 0.602458
vt 0.321506 0.508042
vt 0.449952 0.602048
vt 0.449952 0.504221
vt 0.501036 0.504221
vt 0.501036 0.602048
vt 0.371176 0.509359
vt 0.371176 0.602394
vt 0.323721 0.602394
vt 0.323721 0.509359
vt 0.156848 0.675154
vt 0.148252 0.705600
vt 0.017339 0.705525
vt 0.025936 0.675079
vt 0.582330 0.604672
vt 0.592717 0.566418
vt 0.796018 0.566469
vt 0.785631 0.604723
vt 0.567587 0.508244
vt 0.567749 0.602661
vt 0.322220 0.602670
vt 0.322058 0.508254
vt 0.449878 0.602745
vt 0.449878 0.504918
vt 0.500962 0.504918
vt 0.500962 0.602745
vt 0.323189 0.510402
vt 0.370643 0.510402
vt 0.370643 0.603438
vt 0.323189 0.603438
vt 0.171923 0.679540
vt 0.171923 0.707308
vt 0.026284 0.707308
vt 0.026284 0.679540
vt 0.628772 0.601677
vt 0.624715 0.569334
vt 0.786788 0.569295
vt 0.790844 0.601638
vt 0.319261 0.604537
vt 0.319261 0.509062
vt 0.566172 0.509062
vt 0.566172 0.604537
vt 0.449730 0.504918
vt 0.500813 0.504918
vt 0.500813 0.602745
vt 0.449730 0.602745
vt 0.322656 0.510403
vt 0.370111 0.510402
vt 0.370111 0.603438
vt 0.322656 0.603438
vt 0.157039 0.675068
vt 0.148411 0.705623
vt 0.019935 0.705549
vt 0.028562 0.674994
vt 0.786806 0.569440
vt 0.790863 0.601783
vt 0.628790 0.601822
vt 0.624734 0.569479
vt 0.563730 0.507821
vt 0.563892 0.602237
vt 0.318363 0.602246
vt 0.318200 0.507830
vt 0.450242 0.602461
vt 0.450242 0.504634
vt 0.501325 0.504634
vt 0.501325 0.602461
vt 0.370769 0.602787
vt 0.323314 0.602787
vt 0.323314 0.509751
vt 0.370769 0.509751
vt 0.159820 0.677806
vt 0.155079 0.705010
vt 0.015528 0.704971
vt 0.020270 0.677768
vt 0.783879 0.562134
vt 0.783879 0.601785
vt 0.603266 0.601785
vt 0.603266 0.562134
vt 0.375000 0.000000
vt 0.625000 0.000000
vt 0.625000 0.250000
vt 0.375000 0.250000
vt 0.625000 0.500000
vt 0.375000 0.500000
vt 0.375000 0.750000
vt 0.625000 0.750000
vt 0.625000 1.000000
vt 0.375000 1.000000
vt 0.125000 0.500000
vt 0.125000 0.750000
vt 0.875000 0.500000
vt 0.875000 0.750000
vt 0.566487 0.509304
vt 0.566649 0.603720
vt 0.321120 0.603729
vt 0.320958 0.509313
vt 0.450458 0.603016
vt 0.450458 0.505189
vt 0.501541 0.505189
vt 0.501541 0.603016
vt 0.370700 0.510021
vt 0.370700 0.603057
vt 0.323245 0.603057
vt 0.323245 0.510021
vt 0.160897 0.677830
vt 0.156180 0.704894
vt 0.019783 0.704857
vt 0.024500 0.677792
vt 0.786052 0.569223
vt 0.790108 0.601566
vt 0.628035 0.601605
vt 0.623979 0.569262
vt 0.319815 0.604108
vt 0.319815 0.508634
vt 0.566726 0.508634
vt 0.566726 0.604108
vt 0.450316 0.503795
vt 0.501400 0.503795
vt 0.501400 0.601622
vt 0.450316 0.601622
vt 0.370700 0.509224
vt 0.370700 0.602259
vt 0.323245 0.602259
vt 0.323245 0.509224
vt 0.159041 0.677708
vt 0.154293 0.704951
vt 0.019933 0.704914
vt 0.024681 0.677671
vt 0.602456 0.601874
vt 0.602456 0.562223
vt 0.783069 0.562223
vt 0.783069 0.601874
vt 0.563729 0.507185
vt 0.563891 0.601601
vt 0.318361 0.601611
vt 0.318199 0.507195
vt 0.500813 0.602603
vt 0.449730 0.602603
vt 0.449730 0.504776
vt 0.500813 0.504776
vt 0.370700 0.510414
vt 0.370700 0.603450
vt 0.323245 0.603450
vt 0.323245 0.510414
vt 0.161031 0.678115
vt 0.156284 0.705352
vt 0.017103 0.705314
vt 0.021849 0.678077
vt 0.784284 0.561867
vt 0.784284 0.601518
vt 0.603671 0.601518
vt 0.603671 0.561867
vt 0.319815 0.603894
vt 0.319815 0.508420
vt 0.566726 0.508420
vt 0.566726 0.603894
vt 0.450606 0.504492
vt 0.501689 0.504492
vt 0.501689 0.602319
vt 0.450606 0.602319
vt 0.370769 0.601989
vt 0.323314 0.601989
vt 0.323314 0.508953
vt 0.370769 0.508953
vt 0.172881 0.678147
vt 0.172880 0.708239
vt 0.026237 0.708239
vt 0.026237 0.678147
vt 0.788625 0.569440
vt 0.792681 0.601783
vt 0.630608 0.601822
vt 0.626552 0.569479
vt 0.565934 0.508245
vt 0.566096 0.602661
vt 0.320567 0.602670
vt 0.320405 0.508254
vt 0.449804 0.603016
vt 0.449804 0.505189
vt 0.500887 0.505189
vt 0.500887 0.603016
vt 0.370906 0.602652
vt 0.323452 0.602652
vt 0.323452 0.509616
vt 0.370906 0.509616
vt 0.024316 0.707729
vt 0.024316 0.677773
vt 0.171937 0.677773
vt 0.171937 0.707729
vt 0.787143 0.569222
vt 0.791199 0.601566
vt 0.629126 0.601605
vt 0.625069 0.569261
vt 0.562629 0.508456
vt 0.562791 0.602873
vt 0.317262 0.602882
vt 0.317100 0.508466
vt 0.450094 0.602461
vt 0.450094 0.504634
vt 0.501177 0.504634
vt 0.501177 0.602461
vt 0.370499 0.602652
vt 0.323045 0.602652
vt 0.323045 0.509616
vt 0.370499 0.509616
vt 0.172966 0.678763
vt 0.172966 0.707138
vt 0.026196 0.707138
vt 0.026196 0.678763
vt 0.783474 0.562223
vt 0.783474 0.601874
vt 0.602861 0.601874
vt 0.602861 0.562223
vn -1.0000 0.0000 0.0000
vn 0.0000 0.0000 -1.0000
vn 0.0000 0.0000 1.0000
vn 0.0000 -1.0000 0.0000
vn 0.0000 1.0000 0.0000
usemtl Stone
s off
f 1/1/1 2/2/1 4/3/1 3/4/1
f 5/5/1 6/6/1 8/7/1 7/8/1
f 7/9/2 8/10/2 12/11/2 11/12/2
f 9/13/3 10/14/3 6/15/3 5/16/3
f 7/17/4 11/18/4 9/19/4 5/20/4
f 12/21/5 8/22/5 6/23/5 10/24/5
f 13/25/1 14/26/1 16/27/1 15/28/1
f 15/29/2 16/30/2 20/31/2 19/32/2
f 17/33/3 18/34/3 14/35/3 13/36/3
f 15/37/4 19/38/4 17/39/4 13/40/4
f 20/41/5 16/42/5 14/43/5 18/44/5
f 21/45/1 22/46/1 24/47/1 23/48/1
f 23/49/2 24/50/2 28/51/2 27/52/2
f 25/53/3 26/54/3 22/55/3 21/56/3
f 23/57/4 27/58/4 25/59/4 21/60/4
f 28/61/5 24/62/5 22/63/5 26/64/5
f 29/65/1 30/66/1 32/67/1 31/68/1
f 31/69/2 32/70/2 36/71/2 35/72/2
f 33/73/3 34/74/3 30/75/3 29/76/3
f 31/77/4 35/78/4 33/79/4 29/80/4
f 36/81/5 32/82/5 30/83/5 34/84/5
f 37/85/1 38/86/1 40/87/1 39/88/1
f 39/89/2 40/90/2 44/91/2 43/92/2
f 41/93/3 42/94/3 38/95/3 37/96/3
f 39/97/4 43/98/4 41/99/4 37/100/4
f 44/101/5 40/102/5 38/103/5 42/104/5
f 45/105/1 46/106/1 48/107/1 47/108/1
f 47/109/2 48/110/2 52/111/2 51/112/2
f 49/113/3 50/114/3 46/115/3 45/116/3
f 47/117/4 51/118/4 49/119/4 45/120/4
f 52/121/5 48/122/5 46/123/5 50/124/5
f 53/125/1 54/126/1 56/127/1 55/128/1
f 55/129/2 56/130/2 60/131/2 59/132/2
f 57/133/3 58/134/3 54/135/3 53/136/3
f 55/137/4 59/138/4 57/139/4 53/140/4
f 60/141/5 56/142/5 54/143/5 58/144/5
f 61/145/1 62/146/1 64/147/1 63/148/1
f 63/149/2 64/150/2 68/151/2 67/152/2
f 65/153/3 66/154/3 62/155/3 61/156/3
f 63/157/4 67/158/4 65/159/4 61/160/4
f 68/161/5 64/162/5 62/163/5 66/164/5
f 69/165/1 70/166/1 72/167/1 71/168/1
f 71/169/2 72/170/2 76/171/2 75/172/2
f 73/173/3 74/174/3 70/175/3 69/176/3
f 71/177/4 75/178/4 73/179/4 69/180/4
f 76/181/5 72/182/5 70/183/5 74/184/5
f 77/185/1 78/186/1 80/187/1 79/188/1
f 79/188/2 80/187/2 84/189/2 83/190/2
f 81/191/3 82/192/3 78/193/3 77/194/3
f 79/195/4 83/190/4 81/191/4 77/196/4
f 84/189/5 80/197/5 78/198/5 82/192/5
f 85/199/1 86/200/1 88/201/1 87/202/1
f 87/203/2 88/204/2 92/205/2 91/206/2
f 89/207/3 90/208/3 86/209/3 85/210/3
f 87/211/4 91/212/4 89/213/4 85/214/4
f 92/215/5 88/216/5 86/217/5 90/218/5
f 93/219/1 94/220/1 96/221/1 95/222/1
f 95/223/2 96/224/2 100/225/2 99/226/2
f 97/227/3 98/228/3 94/229/3 93/230/3
f 95/231/4 99/232/4 97/233/4 93/234/4
f 100/235/5 96/236/5 94/237/5 98/238/5
f 101/239/1 102/240/1 104/241/1 103/242/1
f 103/243/2 104/244/2 108/245/2 107/246/2
f 105/247/3 106/248/3 102/249/3 101/250/3
f 103/251/4 107/252/4 105/253/4 101/254/4
f 108/255/5 104/256/5 102/257/5 106/258/5
f 109/259/1 110/260/1 112/261/1 111/262/1
f 111/263/2 112/264/2 116/265/2 115/266/2
f 113/267/3 114/268/3 110/269/3 109/270/3
f 111/271/4 115/272/4 113/273/4 109/274/4
f 116/275/5 112/276/5 110/277/5 114/278/5
f 117/279/1 118/280/1 120/281/1 119/282/1
f 119/283/2 120/284/2 124/285/2 123/286/2
f 121/287/3 122/288/3 118/289/3 117/290/3
f 119/291/4 123/292/4 121/293/4 117/294/4
f 124/295/5 120/296/5 118/297/5 122/298/5
f 125/299/1 126/300/1 128/301/1 127/302/1
f 127/303/2 128/304/2 132/305/2 131/306/2
f 129/307/3 130/308/3 126/309/3 125/310/3
f 127/311/4 131/312/4 129/313/4 125/314/4
f 132/315/5 128/316/5 126/317/5 130/318/5
