# Blender v3.2.2 OBJ File: ''
# www.blender.org
mtllib Pedistal.mtl
o MaskPidestal_Cube.001
v -0.130922 -1.091165 0.927646
v -0.130922 1.223929 0.880034
v -0.130922 -1.091165 -0.927646
v -0.130922 1.223929 -0.880034
v 0.130922 -1.091165 0.927646
v 0.130922 1.223929 0.880034
v 0.130922 -1.091165 -0.927646
v 0.130922 1.223929 -0.880034
v -0.130922 -1.152086 0.819525
v -0.130922 1.339485 0.819525
v 0.130922 -1.152086 0.819525
v 0.130922 1.339485 0.819525
v -0.130922 1.339485 -0.792063
v 0.130922 -1.152086 -0.792063
v -0.130922 -1.152086 -0.792063
v 0.130922 1.339485 -0.792063
v -0.130922 1.148053 1.005223
v -0.130922 1.148053 -1.005223
v 0.130922 1.148053 -1.005223
v 0.130922 1.148053 1.005223
v 0.232148 1.148053 0.819525
v -0.181001 1.148053 0.819525
v 0.232148 1.148053 -0.792063
v -0.181001 1.148053 -0.792063
v -0.130922 -0.980283 -1.005223
v 0.130922 -0.980283 -1.005223
v 0.130922 -0.980283 1.005223
v 0.242204 -0.980283 0.819525
v -0.181001 -0.980283 0.819525
v 0.242204 -0.980283 -0.792063
v -0.181001 -0.980283 -0.792063
v -0.130922 -0.980283 1.005223
v -0.130922 0.946096 1.126034
v -0.130922 0.946096 -1.123357
v 0.130922 0.946096 -1.123357
v 0.130922 0.946096 1.126034
v 0.232148 0.961914 0.821196
v -0.181001 0.961914 0.821196
v 0.232148 0.918250 -0.825270
v -0.181001 0.918250 -0.825270
v -0.130922 -1.152086 0.244798
v 0.130922 1.520812 0.620731
v -0.130922 1.520812 0.620731
v 0.130922 -1.152086 0.244798
v -0.181001 1.249596 0.468323
v 0.232148 1.249596 0.468323
v 0.242204 -0.994557 0.605039
v -0.181001 -0.994557 0.605039
v -0.130922 1.520812 -0.567462
v 0.130922 -1.152086 -0.191530
v -0.181001 1.225774 -0.474946
v -0.181001 -1.019431 -0.586224
v -0.130922 -1.152086 -0.191530
v 0.130922 1.520812 -0.567462
v 0.232148 1.225774 -0.474946
v 0.242204 -1.019431 -0.586224
v -0.130922 -0.756169 -1.123357
v 0.130922 -0.756169 -1.123357
v 0.130922 -0.756169 1.126034
v 0.242204 -0.686698 0.875222
v -0.181001 -0.686698 0.875222
v 0.242204 -0.697032 -0.861950
v -0.181001 -0.697032 -0.861950
v -0.130922 -0.756169 1.126034
v -0.130922 -1.893282 -0.191530
v -0.130922 -1.893282 0.244798
v 0.130922 -1.893282 0.244798
v 0.130922 -1.893282 -0.191530
v -0.130922 -2.097143 -0.191530
v -0.130922 -2.097143 0.244798
v 0.130922 -2.097143 0.244798
v 0.130922 -2.097143 -0.191530
v -0.564241 -2.389346 -0.913598
v -0.564241 -2.389346 0.966867
v 0.564241 -2.389346 0.966867
v 0.564241 -2.389346 -0.913598
v 0.130922 1.352591 0.026634
v 0.232148 1.237685 -0.003312
v -0.130922 1.352591 0.026634
v -0.130922 1.237685 -0.003312
v 0.069163 -1.941365 0.658000
v -0.069163 -1.941365 0.658000
v 0.069163 -2.049060 0.658000
v -0.069163 -2.049060 0.658000
v 0.069163 -1.941365 -0.569661
v -0.069163 -1.941365 -0.569661
v 0.069163 -2.049060 -0.569661
v -0.069163 -2.049060 -0.569661
v 0.128654 0.230985 -0.778586
v -0.074956 0.230985 -0.778586
v 0.133609 -0.018180 -0.784244
v -0.074956 -0.018180 -0.784244
v -0.043821 0.163269 -0.408521
v -0.150544 0.163269 -0.408521
v -0.041223 0.032668 -0.411487
v -0.150544 0.032668 -0.411487
v -0.077807 0.259441 0.783812
v 0.145268 0.259441 0.783812
v 0.150697 0.010453 0.794607
v -0.077807 0.010453 0.794607
v -0.153708 0.177606 0.398244
v -0.054565 0.177606 0.398244
v -0.052152 0.066945 0.403041
v -0.153708 0.066945 0.403041
vt 0.000063 0.304758
vt 0.000063 0.000063
vt 0.251585 0.000063
vt 0.221097 0.304758
vt 0.368709 0.406902
vt 0.023939 0.452304
vt 0.023939 0.552838
vt 0.368709 0.593098
vt 0.228324 0.228322
vt 0.525212 0.228322
vt 0.525212 0.771674
vt 0.228324 0.771674
vt 0.001690 0.366297
vt 0.226364 0.433411
vt 0.308098 0.433375
vt 0.533942 0.366219
vt 0.444500 0.093931
vt 0.555500 0.093931
vt 0.555500 0.395715
vt 0.444500 0.395715
vt 0.228134 0.228132
vt 0.525230 0.228132
vt 0.525230 0.771863
vt 0.228134 0.771863
vt 0.386002 0.078613
vt 0.613998 0.078614
vt 0.613998 0.593842
vt 0.386002 0.593842
vt 0.384719 0.075745
vt 0.615281 0.075746
vt 0.615281 0.596481
vt 0.384719 0.596481
vt 0.000063 0.609452
vt 0.251585 0.609453
vt 0.482344 0.393215
vt 0.200981 0.446486
vt 0.200736 0.548402
vt 0.482344 0.600369
vt 0.525677 0.627364
vt 0.306668 0.561853
vt 0.227483 0.565009
vt 0.009927 0.633781
vt 0.035016 0.619515
vt 0.352213 0.558079
vt 0.352482 0.440518
vt 0.035098 0.380563
vt 0.263122 0.116142
vt 0.183968 0.441843
vt 0.183988 0.557861
vt 0.263122 0.883857
vt 0.407243 0.380077
vt 0.081367 0.430514
vt 0.081368 0.560016
vt 0.407243 0.619924
vt 0.235931 0.092962
vt 0.161312 0.462316
vt 0.157968 0.586392
vt 0.235931 0.907038
vt 0.161320 0.738949
vt 0.155276 0.251484
vt 0.291523 0.243209
vt 0.291523 0.756791
vt 0.249669 0.128940
vt 0.249669 0.783306
vt 0.134297 0.783306
vt 0.134297 0.128940
vt 0.094922 0.779178
vt 0.106834 0.172827
vt 0.256205 0.175559
vt 0.254191 0.800344
vt 0.280354 0.171523
vt 0.280354 0.740723
vt 0.175342 0.740723
vt 0.175342 0.171523
vt 0.212456 0.198240
vt 0.212456 0.795893
vt 0.052559 0.801760
vt 0.062853 0.222630
vt 0.298461 0.132793
vt 0.298461 0.867207
vt 0.196353 0.855193
vt 0.188850 0.157575
vt 0.232162 0.421343
vt 0.310475 0.269040
vt 0.310475 0.730960
vt 0.232068 0.590507
vt 0.000653 0.477675
vt 0.163867 0.500000
vt 0.169092 0.999929
vt 0.001236 0.864984
vt 0.000090 0.404746
vt 0.132262 0.404746
vt 0.132262 0.809403
vt 0.000090 0.809403
vt 0.094922 0.431532
vt 0.158579 0.325278
vt 0.158579 0.674722
vt 0.095269 0.559505
vt 0.112059 0.496064
vt 0.082932 0.533736
vt 0.004247 0.063081
vt 0.157793 0.000054
vt 0.157793 0.992075
vt 0.000054 0.999946
vt 0.000090 0.000090
vt 0.132262 0.000090
vt 0.000071 0.090366
vt 0.169092 0.000071
vt 0.323509 0.466316
vt 0.122405 0.466316
vt 0.122405 0.578506
vt 0.323509 0.578506
vt 0.006122 0.559192
vt 0.149493 0.559192
vt 0.149494 0.440808
vt 0.006122 0.440808
vt 0.180472 0.139935
vt 0.180472 0.000042
vt 0.000044 0.000042
vt 0.000042 0.139935
vt 0.584842 0.084739
vt 0.584842 0.000029
vt 0.415158 0.000029
vt 0.415158 0.084738
vt 0.045566 0.541967
vt 0.085691 0.541967
vt 0.076227 0.652923
vt 0.055030 0.652923
vt 0.117141 0.547677
vt 0.180946 0.547771
vt 0.291781 0.706973
vt 0.006789 0.707020
vt 0.085938 0.461676
vt 0.045319 0.461676
vt 0.054899 0.345194
vt 0.076357 0.345194
vt 0.045319 0.542484
vt 0.085938 0.542484
vt 0.085691 0.462142
vt 0.045566 0.462143
vt 0.144916 0.023796
vt 0.855084 0.023796
vt 0.855084 0.334412
vt 0.144916 0.334412
vt 0.181429 0.452323
vt 0.117623 0.452229
vt 0.006789 0.293027
vt 0.291781 0.292980
vt 0.431994 0.277166
vt 0.568006 0.277167
vt 0.568006 0.368194
vt 0.431994 0.368194
vt 0.270484 0.464476
vt 0.270484 0.535524
vt 0.110582 0.518766
vt 0.110582 0.481234
vt 0.055030 0.347077
vt 0.076227 0.347077
vt 0.270423 0.469747
vt 0.270423 0.530253
vt 0.111971 0.515982
vt 0.111971 0.484018
vt 0.459152 0.367606
vt 0.459152 0.457490
vt 0.337500 0.457490
vt 0.337500 0.367606
vt 0.417057 0.464476
vt 0.417057 0.535524
vt 0.270603 0.518766
vt 0.270603 0.481234
vt 0.415668 0.469747
vt 0.415668 0.530253
vt 0.270542 0.515982
vt 0.270542 0.484018
vt 0.076358 0.654806
vt 0.054899 0.654806
vt 0.578103 0.061355
vt 0.421897 0.086008
vt 0.421897 0.136475
vt 0.578103 0.157638
vt 0.458205 0.087000
vt 0.543881 0.087000
vt 0.543881 0.007255
vt 0.456119 0.007256
vt 0.204149 0.466402
vt 0.028595 0.426728
vt 0.028595 0.482744
vt 0.204149 0.573272
vt 0.201754 0.426494
vt 0.027501 0.516947
vt 0.027501 0.573506
vt 0.201754 0.534399
vt 0.033884 0.447547
vt 0.091182 0.555933
vt 0.154297 0.554109
vt 0.154297 0.444067
vt 0.050855 0.525576
vt 0.174106 0.551018
vt 0.174106 0.516976
vt 0.050855 0.448982
vt 0.134674 0.450354
vt 0.134674 0.547287
vt 0.018297 0.549646
vt 0.018297 0.450354
vt 0.139607 0.556843
vt 0.139607 0.444670
vt 0.088189 0.443157
vt 0.023912 0.553439
vt 0.182263 0.438134
vt 0.045023 0.520835
vt 0.045023 0.561866
vt 0.182263 0.530454
vt 0.409669 0.163782
vt 0.590331 0.138581
vt 0.590331 0.088780
vt 0.409669 0.051729
vt 0.129388 0.099470
vt 0.006666 0.122462
vt 0.000094 0.087505
vt 0.011237 0.050049
vt 0.153882 0.075130
vt 0.153882 0.127113
vt 0.000052 0.127113
vt 0.000052 0.075130
vt 0.314304 0.464241
vt 0.341754 0.621701
vt 0.291047 0.628224
vt 0.228732 0.617597
vt 0.000051 0.185568
vt 0.000051 0.133586
vt 0.158493 0.133585
vt 0.158493 0.185568
vt 0.560652 0.179751
vt 0.439348 0.179751
vt 0.439348 0.155422
vt 0.560652 0.155422
vt 0.000051 0.092123
vt 0.158493 0.092123
vt 0.000051 0.000051
vt 0.158493 0.000051
vt 0.560652 0.297478
vt 0.439348 0.297478
vt 0.445438 0.435984
vt 0.445438 0.622176
vt 0.063233 0.417329
vt 0.109504 0.403291
vt 0.148832 0.407928
vt 0.129000 0.497621
vt 0.244924 0.044813
vt 0.257754 0.079259
vt 0.253934 0.112033
vt 0.036191 0.103415
vt 0.462416 0.165881
vt 0.537584 0.165881
vt 0.537584 0.190802
vt 0.462416 0.190802
vt 0.153882 0.174930
vt 0.000052 0.174929
vt 0.166987 0.168862
vt 0.013133 0.190459
vt 0.424375 0.468832
vt 0.407355 0.505123
vt 0.398068 0.441113
vt 0.233608 0.000082
vt 0.000082 0.069408
vt 0.000072 0.429609
vt 0.096260 0.523507
vt 0.264658 0.442362
vt 0.000051 0.261237
vt 0.158493 0.261237
vt 0.147774 0.612165
vt 0.153882 0.000053
vt 0.000052 0.000052
vt 0.166987 0.063502
vt 0.025496 0.000094
vt 0.259379 0.506939
vt 0.358174 0.534458
vt 0.251877 0.565584
vt 0.245176 0.538611
vt 0.462416 0.145419
vt 0.537584 0.145419
vt 0.618836 0.407313
vt 0.405450 0.363259
vt 0.628893 0.351653
vt 0.631971 0.380263
vt 0.439348 0.131165
vt 0.560652 0.131165
vt 0.574038 0.524121
vt 0.368029 0.400406
vt 0.262726 0.469998
vt 0.267779 0.445165
vt 0.360318 0.470518
vt 0.271956 0.494223
vt 0.601932 0.455595
vt 0.598814 0.477091
vt 0.588250 0.431344
vt 0.323465 0.387946
vt 0.386792 0.498097
vt 0.389331 0.503256
vt 0.327505 0.597090
vt 0.229706 0.407024
vt 0.229706 0.522026
vt 0.153882 0.274917
vt 0.000052 0.274917
vt 0.537584 0.294570
vt 0.462416 0.294570
vt 0.257754 0.173967
vt 0.005491 0.170582
vt 0.549666 0.338787
vt 0.389331 0.432297
vt 0.378087 0.315602
vt 0.386792 0.577356
vt 0.601932 0.512284
vt 0.275057 0.402910
vt 0.439348 0.086617
vt 0.560652 0.086617
vt 0.631971 0.305229
vt 0.462416 0.108095
vt 0.537584 0.108095
vt 0.259796 0.612054
vn -0.0000 -0.9997 0.0252
vn 0.0000 -0.1149 -0.9934
vn -1.0000 0.0000 0.0000
vn -0.5064 -0.0196 0.8621
vn 0.0000 0.9998 -0.0209
vn 1.0000 0.0000 0.0000
vn 0.0000 0.0000 -1.0000
vn 0.0000 0.0000 1.0000
vn 0.0000 0.0678 0.9977
vn 0.5063 -0.0155 0.8622
vn 0.0000 -0.1137 0.9935
vn -0.4967 -0.0296 -0.8674
vn 0.0000 0.0531 -0.9986
vn 0.5520 -0.0240 -0.8335
vn -0.8659 0.1654 0.4720
vn -0.8730 -0.2134 0.4386
vn -0.5911 0.2001 -0.7814
vn -0.5925 -0.1871 -0.7836
vn 0.5249 0.2027 -0.8266
vn 0.5179 -0.1930 -0.8334
vn 0.9188 0.1661 -0.3582
vn 0.9154 -0.2224 -0.3355
vn 0.5210 0.2012 0.8295
vn 0.5109 -0.1948 0.8372
vn -0.5889 0.2008 0.7829
vn -0.5886 -0.1899 0.7858
vn -0.8748 -0.2261 -0.4285
vn -0.8686 0.1701 -0.4654
vn 0.9149 -0.2085 0.3456
vn 0.9165 0.1579 0.3675
vn 0.7289 -0.6250 -0.2795
vn 0.9361 0.1663 0.3100
vn 0.9224 0.2136 -0.3218
vn 0.7306 -0.6198 0.2866
vn 0.8559 -0.5165 0.0259
vn 0.5520 0.8338 -0.0105
vn 0.4758 0.8580 0.1938
vn 0.9101 -0.3420 -0.2339
vn -0.7139 0.7002 -0.0099
vn -0.5580 0.8089 0.1853
vn -0.8321 -0.4726 0.2904
vn -0.8823 0.3811 -0.2762
vn -0.8985 0.3516 0.2628
vn -0.8318 -0.4756 -0.2862
vn -0.7301 -0.6828 0.0261
vn -0.5670 0.8087 -0.1570
vn -0.8455 -0.4780 0.2382
vn -0.8512 -0.4754 -0.2225
vn 0.4824 0.8602 -0.1652
vn 0.9015 -0.3585 0.2425
vn 0.0000 -0.7751 -0.6319
vn 0.0000 0.6500 0.7600
vn 0.0000 -0.7515 0.6597
vn 0.0000 0.6596 -0.7516
vn -0.9869 0.0000 -0.1612
vn 0.5591 0.8291 0.0000
vn 0.9890 0.0000 0.1478
vn 0.0000 -1.0000 0.0000
vn -0.5591 0.8291 0.0000
vn 0.0000 0.9270 -0.3751
vn 0.0000 0.9270 0.3751
vn 0.0000 -0.9933 0.1156
vn -0.9890 0.0000 0.1478
vn 0.0000 0.9933 0.1156
vn 0.0000 -0.9920 -0.1261
vn 0.0000 0.9920 -0.1261
vn 0.9869 0.0000 -0.1612
vn -0.9799 0.0045 -0.1993
vn 0.0000 -0.0227 0.9997
vn 0.0000 0.9837 0.1800
vn 0.0000 -0.9908 0.1352
vn 0.9058 0.0084 0.4237
vn 0.0000 -0.9898 -0.1428
vn 0.0000 -0.0433 -0.9991
vn 0.8879 -0.0006 -0.4601
vn 0.0000 0.9782 -0.2076
vn -0.9815 0.0083 0.1914
vn -0.9834 0.1284 -0.1284
vn -0.5923 0.5876 -0.5513
vn -0.5180 0.6361 -0.5719
vn -0.5765 0.5468 -0.6073
vn 0.3897 0.6849 -0.6157
vn 0.4961 0.5629 -0.6611
vn 0.9372 0.2280 0.2639
vn 0.4961 0.5936 0.6336
vn 0.3426 0.6474 0.6808
vn 0.4807 0.5609 0.6741
vn -0.4789 0.6040 0.6371
vn -0.5686 0.5468 0.6146
vn -0.5554 -0.8017 0.2209
vn 0.4433 -0.8615 0.2475
vn 0.4268 -0.6678 0.6098
vn -0.5500 -0.6174 0.5624
vn -0.5842 0.5332 0.6119
vn -0.9792 0.1337 0.1527
vn 0.5028 0.6464 -0.5739
vn 0.9466 0.2263 -0.2295
vn -0.5537 -0.6429 -0.5293
vn 0.4408 -0.6939 -0.5694
vn 0.4395 -0.8721 -0.2153
vn -0.5571 -0.8091 -0.1872
vn 0.9423 -0.2823 -0.1802
vn -0.9855 -0.1442 -0.0895
vn -0.6098 -0.4146 -0.6754
vn 0.5095 -0.4523 -0.7320
vn 0.9386 -0.2827 0.1979
vn 0.4953 -0.4502 0.7430
vn -0.6032 -0.4149 0.6811
vn -0.9844 -0.1442 0.1003
usemtl BaseMat
s off
f 78/1/1 46/2/1 45/3/1 80/4/1
f 61/5/2 100/6/2 99/7/2 60/8/2
f 41/9/3 53/10/3 65/11/3 66/12/3
f 63/13/4 92/14/4 90/15/4 40/16/4
f 56/17/5 52/18/5 48/19/5 47/20/5
f 50/21/6 44/22/6 67/23/6 68/24/6
f 53/25/7 50/26/7 68/27/7 65/28/7
f 44/29/8 41/30/8 66/31/8 67/32/8
f 55/33/1 78/1/1 80/4/1 51/34/1
f 40/35/9 90/36/9 89/37/9 39/38/9
f 39/39/10 89/40/10 91/41/10 62/42/10
f 62/43/11 91/44/11 92/45/11 63/46/11
f 38/47/12 97/48/12 100/49/12 61/50/12
f 37/51/13 98/52/13 97/53/13 38/54/13
f 60/55/14 99/56/14 98/57/14 37/58/14
s 1
f 63/59/15 40/60/16 34/61/17 57/62/18
f 57/63/18 34/64/17 35/65/19 58/66/20
f 60/67/21 37/68/22 36/69/23 59/70/24
f 59/71/24 36/72/23 33/73/25 64/74/26
f 64/75/26 33/76/25 38/77/27 61/78/28
f 58/79/20 35/80/19 39/81/29 62/82/30
f 50/83/31 56/84/32 47/85/33 44/86/34
f 78/87/35 77/88/36 42/89/37 46/90/38
f 77/91/36 79/92/39 43/93/40 42/94/37
f 41/95/41 48/96/42 52/97/43 53/98/44
f 80/99/45 79/100/39 49/101/46 51/102/47
f 45/103/48 43/104/40 79/100/39 80/99/45
f 54/105/49 49/106/46 79/92/39 77/91/36
f 55/107/50 54/108/49 77/88/36 78/87/35
usemtl DopMat
s off
f 38/109/51 45/110/51 46/111/51 37/112/51
f 56/113/52 62/114/52 63/115/52 52/116/52
f 55/117/53 51/118/53 40/119/53 39/120/53
f 48/121/54 61/122/54 60/123/54 47/124/54
f 69/125/55 65/126/55 86/127/55 88/128/55
f 72/129/56 71/130/56 75/131/56 76/132/56
f 71/133/57 67/134/57 81/135/57 83/136/57
f 68/137/6 67/134/6 71/133/6 72/138/6
f 66/139/3 65/126/3 69/125/3 70/140/3
f 73/141/58 76/142/58 75/143/58 74/144/58
f 70/145/59 69/146/59 73/147/59 74/148/59
f 69/146/60 72/129/60 76/132/60 73/147/60
f 71/130/61 70/145/61 74/148/61 75/131/61
f 81/149/8 82/150/8 84/151/8 83/152/8
f 70/153/62 71/154/62 83/155/62 84/156/62
f 66/139/63 70/140/63 84/157/63 82/158/63
f 67/159/64 66/160/64 82/161/64 81/162/64
f 86/163/7 85/164/7 87/165/7 88/166/7
f 72/167/65 69/168/65 88/169/65 87/170/65
f 65/171/66 68/172/66 85/173/66 86/174/66
f 68/137/67 72/138/67 87/175/67 85/176/67
f 92/177/68 96/178/68 94/179/68 90/180/68
f 93/181/69 94/182/69 96/183/69 95/184/69
f 90/185/70 94/186/70 93/187/70 89/188/70
f 91/189/71 95/190/71 96/191/71 92/192/71
f 89/193/72 93/194/72 95/195/72 91/196/72
f 100/197/73 104/198/73 103/199/73 99/200/73
f 101/201/74 102/202/74 103/203/74 104/204/74
f 99/205/75 103/206/75 102/207/75 98/208/75
f 98/209/76 102/210/76 101/211/76 97/212/76
f 97/213/77 101/214/77 104/215/77 100/216/77
s 1
f 24/217/78 13/218/79 4/219/80 18/220/81
f 18/221/81 4/222/80 8/223/82 19/224/83
f 21/225/84 12/226/85 6/227/86 20/228/87
f 20/229/87 6/230/86 2/231/88 17/232/89
f 9/233/90 11/234/91 5/235/92 1/236/93
f 12/237/85 10/238/94 2/231/88 6/230/86
f 42/239/37 43/240/40 10/238/94 12/237/85
f 41/241/41 44/242/34 11/234/91 9/233/90
f 46/243/38 42/244/37 12/226/85 21/225/84
f 17/245/89 2/246/88 10/247/94 22/248/95
f 19/249/83 8/250/82 16/251/96 23/252/97
f 3/253/98 7/254/99 14/255/100 15/256/101
f 8/223/82 4/222/80 13/257/79 16/258/96
f 51/259/47 49/260/46 13/218/79 24/217/78
f 30/261/102 62/262/30 56/263/32
f 35/264/19 19/249/83 23/252/97 39/265/29
f 33/266/25 17/245/89 22/248/95 38/267/27
f 46/243/38 21/225/84 37/268/22
f 36/269/23 20/229/87 17/232/89 33/270/25
f 37/268/22 21/225/84 20/228/87 36/271/23
f 34/272/17 18/221/81 19/224/83 35/273/19
f 40/274/16 24/217/78 18/220/81 34/275/17
f 15/276/101 31/277/103 25/278/104 3/279/98
f 3/253/98 25/280/104 26/281/105 7/254/99
f 11/282/91 28/283/106 27/284/107 5/285/92
f 5/235/92 27/286/107 32/287/108 1/236/93
f 44/288/34 47/289/33 28/283/106 11/282/91
f 1/290/93 32/291/108 29/292/109 9/293/90
f 7/294/99 26/295/105 30/261/102 14/296/100
f 53/297/44 52/298/43 31/277/103 15/276/101
f 9/293/90 29/292/109 48/299/42 41/300/41
f 51/259/47 24/217/78 40/274/16
f 22/248/95 10/247/94 43/301/40 45/302/48
f 16/258/96 13/257/79 49/303/46 54/304/49
f 15/256/101 14/255/100 50/305/31 53/306/44
f 23/252/97 16/251/96 54/307/49 55/308/50
f 39/265/29 23/252/97 55/308/50
f 14/296/100 30/261/102 56/263/32 50/309/31
f 29/292/109 61/310/28 48/299/42
f 38/267/27 22/248/95 45/302/48
f 60/311/21 28/283/106 47/289/33
f 63/312/15 31/277/103 52/298/43
f 26/295/105 58/313/20 62/262/30 30/261/102
f 32/291/108 64/314/26 61/310/28 29/292/109
f 27/286/107 59/315/24 64/316/26 32/287/108
f 28/283/106 60/311/21 59/317/24 27/284/107
f 25/280/104 57/318/18 58/319/20 26/281/105
f 31/277/103 63/312/15 57/320/18 25/278/104
